PathFileType	4	(X/Y/Z)	C:/Users/opensim2020/Desktop/walking_exp_matlab/subject06_cal10_run.trc																																																																																																																																																	
DataRate	CameraRate	NumFrames	NumMarkers	Units	OrigDataRate	OrigDataStartFrame	OrigNumFrames																																																																																																																																													
100	100	4	49	mm	100	272	118																																																																																																																																													
Frame#	Time	LKNE			RTIB			RFRM			RWRA			LTHI			RKNE			RELB			RFHD			LWRA			RUPA			STRN			RASI			CLAV			RSHO			LASI			RTHI			RBHD			LBHD			C7			RWRB			RFIN			RTOE			LSHO			RBAK			LTIB			RANK			LFIN			LANK			RHEE			T10			LHEE			LTOE			LFHD			LPSI			RPSI			LUPA			LELB			LFRM			LWRB			*39			*40			*41			*42			*43			*44			*45			*46			*47			*48		
		X1	Y1	Z1	X2	Y2	Z2	X3	Y3	Z3	X4	Y4	Z4	X5	Y5	Z5	X6	Y6	Z6	X7	Y7	Z7	X8	Y8	Z8	X9	Y9	Z9	X10	Y10	Z10	X11	Y11	Z11	X12	Y12	Z12	X13	Y13	Z13	X14	Y14	Z14	X15	Y15	Z15	X16	Y16	Z16	X17	Y17	Z17	X18	Y18	Z18	X19	Y19	Z19	X20	Y20	Z20	X21	Y21	Z21	X22	Y22	Z22	X23	Y23	Z23	X24	Y24	Z24	X25	Y25	Z25	X26	Y26	Z26	X27	Y27	Z27	X28	Y28	Z28	X29	Y29	Z29	X30	Y30	Z30	X31	Y31	Z31	X32	Y32	Z32	X33	Y33	Z33	X34	Y34	Z34	X35	Y35	Z35	X36	Y36	Z36	X37	Y37	Z37	X38	Y38	Z38	X39	Y39	Z39	X40	Y40	Z40	X41	Y41	Z41	X42	Y42	Z42	X43	Y43	Z43	X44	Y44	Z44	X45	Y45	Z45	X46	Y46	Z46	X47	Y47	Z47	X48	Y48	Z48	X49	Y49	Z49
																																																																																																																																																				
104	1.03	157.0616	431.95251	-1924.74854	403.33624	249.11026	-1952.13013	546.76624	1060.84827	-1785.08142	479.16864	1081.81482	-1909.0061	132.6088	592.46765	-1912.88562	408.18927	503.56772	-2011.45618	565.91669	1115.64746	-1696.60156	372.72552	1621.28308	-1929.23438	159.71785	1133.43213	-1987.58728	539.12036	1216.63916	-1725.79468	296.13239	1161.86316	-1962.56824	407.87354	930.70813	-1921.49365	302.07867	1339.37512	-1920.87305	451.5925	1368.3562	-1841.23608	192.70363	915.31189	-1946.73523	448.80948	616.78003	-1958.64478	364.89288	1566.99463	-1799.28064	235.79037	1570.47839	-1803.9823	287.62103	1412.75085	-1807.45813	505.40524	1020.37726	-1906.32971	495.41409	1043.82422	-1985.85815	315.68246	32.93606	-2022.83569	136.42249	1382.67078	-1877.74048	339.10367	1240.27136	-1726.39063	149.96562	340.50912	-1703.1532	352.64279	77.72555	-1878.91956	199.11855	1104.50513	-2068.39307	172.30939	275.79526	-1545.76331	318.47592	63.15968	-1824.49182	271.33389	1084.71326	-1774.01526	222.39732	294.89392	-1511.67236	150.11404	142.94604	-1589.09302	240.33313	1630.91992	-1935.37549	194.37137	947.63202	-1790.54993	365.31647	956.30981	-1772.3147	30.0082	1210.78162	-1847.3905	-4.53114	1114.61255	-1823.37451	64.05173	1073.77502	-1927.76672	153.76418	1063.96472	-2002.23145							294.81339	1830.61377	1665.81372																					 
105	1.04	156.5923	431.47256	-1985.95117	400.86896	242.5148	-1962.48523	547.67822	1049.37622	-1837.78711	476.56851	1072.29016	-1958.86707	131.63257	591.41168	-1965.26123	406.79587	494.09027	-2037.28674	570.43732	1101.93298	-1749.18616	373.34381	1617.31311	-1966.1416	155.63583	1118.37488	-2021.12317	544.23328	1204.35986	-1773.72363	295.51749	1155.78223	-2000.08691	408.85367	921.724	-1956.59021	302.19092	1334.20789	-1959.48157	454.05316	1362.14673	-1882.35364	193.05354	908.85211	-1982.37024	447.52072	610.07269	-1990.32141	366.69409	1561.10522	-1836.90356	237.20792	1564.58691	-1840.26331	289.23596	1409.10327	-1846.49585	502.16306	1010.64844	-1957.44971	488.97531	1034.93628	-2035.86865	315.10223	32.78696	-2022.1499	136.18283	1376.15381	-1915.27869	342.54202	1236.50879	-1763.92859	149.11639	336.97757	-1767.45117	349.94052	76.05338	-1879.10071	190.43982	1085.75183	-2103.16357	171.64998	269.22211	-1610.9093	315.20471	63.93008	-1823.95276	273.49173	1080.18604	-1811.24072	221.46944	287.07278	-1575.70117	149.12781	138.53035	-1659.37903	240.80943	1626.95068	-1970.81702	193.66623	940.92151	-1825.1593	364.8183	950.89777	-1808.25623	31.32299	1204.75525	-1876.37158	-3.56731	1108.59583	-1849.92004	60.47678	1063.93787	-1956.047	146.37225	1048.95496	-2033.77039							296.31448	1866.05457	1660.21631																					 
106	1.05	155.93446	435.5127	-2046.60535	398.14688	236.32884	-1969.37659	547.69043	1041.06982	-1891.10718	472.20798	1066.68469	-2008.44006	129.75531	593.58105	-2016.27698	406.56696	485.17987	-2059.40918	573.61823	1091.87439	-1802.7373	373.88547	1614.24756	-2003.1571	150.82234	1105.65967	-2053.83447	547.01434	1196.54077	-1821.20618	294.76846	1151.84167	-2037.79675	408.66812	915.34692	-1992.24548	301.83734	1330.37878	-1996.69556	455.97638	1358.03528	-1923.82605	191.96266	904.09692	-2018.36133	446.34265	603.4494	-2018.5575	368.3013	1556.31799	-1874.55957	238.58446	1560.08765	-1876.42212	290.44473	1407.06128	-1885.55286	496.9751	1003.60742	-2008.5271	483.00052	1030.42065	-2086.15625	314.58969	32.64217	-2021.60205	136.37857	1371.71008	-1952.59399	346.81281	1234.34692	-1801.37097	149.04527	334.77762	-1831.86914	347.23355	75.95653	-1878.75684	180.76443	1069.16223	-2136.22241	172.0267	261.82635	-1677.1615	312.23969	66.25975	-1823.95581	275.8757	1078.95947	-1847.68896	221.89696	277.89941	-1640.99841	148.56113	133.81273	-1731.29285	241.31697	1623.91931	-2006.23914	193.85991	937.48737	-1860.42419	364.15341	949.24634	-1845.28357	33.31829	1202.23511	-1905.37036	-2.39181	1106.20361	-1875.49744	56.69305	1056.52856	-1983.09546	138.71034	1036.38428	-2063.59229							297.81485	1901.82422	1655.84326																					 
107	1.06	155.17325	443.07419	-2105.90552	396.28711	231.64421	-1976.67883	546.87781	1036.8103	-1944.46204	467.75043	1065.43262	-2057.21631	127.53869	598.27045	-2065.30029	406.73083	476.67181	-2079.6853	576.01288	1086.39258	-1855.80591	374.37402	1612.47485	-2040.39099	145.73434	1096.04639	-2085.38281	549.95496	1191.7511	-1868.87427	293.78024	1149.94104	-2076.06567	408.04919	912.47687	-2029.80798	301.69705	1328.61951	-2034.85278	457.09586	1356.11011	-1965.5575	190.09515	901.68903	-2053.71533	445.5993	596.79468	-2043.74963	369.60782	1552.97522	-1912.37329	240.4456	1556.83191	-1913.42383	291.59647	1405.6582	-1923.40332	492.707	1002.33496	-2059.66504	474.61151	1030.0155	-2135.61426	314.36072	32.44826	-2021.08521	137.28102	1369.52527	-1988.34448	351.40747	1233.29883	-1839.83264	149.46436	333.53891	-1896.23022	345.40219	77.33395	-1879.12292	170.32924	1055.86548	-2167.65234	173.28462	253.58112	-1744.4978	309.93842	69.88351	-1824.47083	278.10992	1078.02539	-1884.12891	223.35844	267.58441	-1707.59924	148.55334	129.53703	-1805.68201	241.57227	1622.26355	-2041.94421	194.67456	937.31097	-1896.41333	363.93167	949.53851	-1882.9519	34.8598	1202.06982	-1934.14954	-0.35798	1107.99414	-1900.25	52.84295	1051.14917	-2009.30078	131.12621	1026.81421	-2091.78979							299.11609	1937.85254	1652.8689																					 
